<?xml version="1.0" encoding="UTF-8" standalone="no"?>
<!DOCTYPE svg PUBLIC "-//W3C//DTD SVG 1.1//EN"
 "http://www.w3.org/Graphics/SVG/1.1/DTD/svg11.dtd">
<!-- Generated by graphviz version 2.49.3 (20211023.0002)
 -->
<!-- Pages: 1 -->
<svg width="278pt" height="332pt"
 viewBox="0.00 0.00 277.76 332.00" xmlns="http://www.w3.org/2000/svg" xmlns:xlink="http://www.w3.org/1999/xlink">
<g id="graph0" class="graph" transform="scale(1 1) rotate(0) translate(4 328)">
<polygon fill="white" stroke="transparent" points="-4,4 -4,-328 273.76,-328 273.76,4 -4,4"/>
<!-- pace -->
<g id="node1" class="node">
<title>pace</title>
<polygon fill="none" stroke="black" points="110.42,-324 56.42,-324 56.42,-288 110.42,-288 110.42,-324"/>
<text text-anchor="middle" x="83.42" y="-302.3" font-family="Times,serif" font-size="14.00">pace</text>
</g>
<!-- fv3core -->
<g id="node2" class="node">
<title>fv3core</title>
<ellipse fill="none" stroke="black" cx="108.42" cy="-90" rx="38.19" ry="18"/>
<text text-anchor="middle" x="108.42" y="-86.3" font-family="Times,serif" font-size="14.00">fv3core</text>
</g>
<!-- pace&#45;&gt;fv3core -->
<g id="edge1" class="edge">
<title>pace&#45;&gt;fv3core</title>
<path fill="none" stroke="black" d="M87.5,-287.91C89.83,-277.57 92.64,-264.09 94.42,-252 101.27,-205.32 105.16,-150.49 107.02,-118.36"/>
<polygon fill="black" stroke="black" points="110.54,-118.18 107.6,-108 103.55,-117.79 110.54,-118.18"/>
</g>
<!-- driver -->
<g id="node3" class="node">
<title>driver</title>
<ellipse fill="none" stroke="black" cx="53.42" cy="-234" rx="32.49" ry="18"/>
<text text-anchor="middle" x="53.42" y="-230.3" font-family="Times,serif" font-size="14.00">driver</text>
</g>
<!-- pace&#45;&gt;driver -->
<g id="edge4" class="edge">
<title>pace&#45;&gt;driver</title>
<path fill="none" stroke="black" d="M76,-287.7C72.53,-279.61 68.34,-269.81 64.5,-260.87"/>
<polygon fill="black" stroke="black" points="67.7,-259.44 60.54,-251.62 61.26,-262.19 67.7,-259.44"/>
</g>
<!-- physics -->
<g id="node4" class="node">
<title>physics</title>
<ellipse fill="none" stroke="black" cx="205.42" cy="-162" rx="64.19" ry="18"/>
<text text-anchor="middle" x="205.42" y="-158.3" font-family="Times,serif" font-size="14.00">fv3gfs&#45;physics</text>
</g>
<!-- pace&#45;&gt;physics -->
<g id="edge2" class="edge">
<title>pace&#45;&gt;physics</title>
<path fill="none" stroke="black" d="M98.13,-287.87C119.59,-262.9 159.58,-216.35 184.21,-187.68"/>
<polygon fill="black" stroke="black" points="187.16,-189.61 191.03,-179.75 181.85,-185.05 187.16,-189.61"/>
</g>
<!-- util -->
<g id="node5" class="node">
<title>util</title>
<ellipse fill="none" stroke="black" cx="70.42" cy="-18" rx="49.29" ry="18"/>
<text text-anchor="middle" x="70.42" y="-14.3" font-family="Times,serif" font-size="14.00">fv3gfs&#45;util</text>
</g>
<!-- pace&#45;&gt;util -->
<g id="edge3" class="edge">
<title>pace&#45;&gt;util</title>
<path fill="none" stroke="black" d="M56.35,-292.72C40.39,-283.88 21.59,-270.29 12.42,-252 -22.82,-181.73 25.33,-88.55 53.14,-44.34"/>
<polygon fill="black" stroke="black" points="56.25,-45.98 58.72,-35.68 50.36,-42.19 56.25,-45.98"/>
</g>
<!-- fv3core&#45;&gt;util -->
<g id="edge8" class="edge">
<title>fv3core&#45;&gt;util</title>
<path fill="none" stroke="black" d="M99.41,-72.41C94.93,-64.16 89.42,-54.01 84.41,-44.78"/>
<polygon fill="black" stroke="black" points="87.47,-43.07 79.62,-35.96 81.32,-46.41 87.47,-43.07"/>
</g>
<!-- driver&#45;&gt;fv3core -->
<g id="edge5" class="edge">
<title>driver&#45;&gt;fv3core</title>
<path fill="none" stroke="black" d="M59.94,-216.15C69.41,-191.71 87.05,-146.17 98.23,-117.29"/>
<polygon fill="black" stroke="black" points="101.55,-118.41 101.9,-107.82 95.02,-115.89 101.55,-118.41"/>
</g>
<!-- driver&#45;&gt;physics -->
<g id="edge6" class="edge">
<title>driver&#45;&gt;physics</title>
<path fill="none" stroke="black" d="M77.5,-221.91C100.82,-211.17 136.62,-194.68 164.42,-181.88"/>
<polygon fill="black" stroke="black" points="165.89,-185.05 173.51,-177.69 162.97,-178.7 165.89,-185.05"/>
</g>
<!-- driver&#45;&gt;util -->
<g id="edge7" class="edge">
<title>driver&#45;&gt;util</title>
<path fill="none" stroke="black" d="M53.61,-215.55C54.08,-185.95 55.73,-124.02 61.42,-72 62.34,-63.52 63.76,-54.34 65.19,-46.04"/>
<polygon fill="black" stroke="black" points="68.65,-46.58 66.98,-36.11 61.76,-45.33 68.65,-46.58"/>
</g>
<!-- physics&#45;&gt;fv3core -->
<g id="edge10" class="edge">
<title>physics&#45;&gt;fv3core</title>
<path fill="none" stroke="black" d="M182.92,-144.76C169.16,-134.84 151.45,-122.05 136.74,-111.44"/>
<polygon fill="black" stroke="black" points="138.64,-108.5 128.48,-105.48 134.55,-114.17 138.64,-108.5"/>
</g>
<!-- physics&#45;&gt;util -->
<g id="edge9" class="edge">
<title>physics&#45;&gt;util</title>
<path fill="none" stroke="black" d="M198.9,-143.97C190.91,-124.75 175.86,-93.4 155.42,-72 142.16,-58.12 124.54,-46.36 108.78,-37.47"/>
<polygon fill="black" stroke="black" points="110.22,-34.27 99.76,-32.58 106.88,-40.42 110.22,-34.27"/>
</g>
</g>
</svg>
