<?xml version="1.0" encoding="UTF-8" standalone="no"?>
<!DOCTYPE svg PUBLIC "-//W3C//DTD SVG 1.1//EN"
 "http://www.w3.org/Graphics/SVG/1.1/DTD/svg11.dtd">
<!-- Generated by graphviz version 2.49.3 (20211023.0002)
 -->
<!-- Pages: 1 -->
<svg width="320pt" height="404pt"
 viewBox="0.00 0.00 319.70 404.00" xmlns="http://www.w3.org/2000/svg" xmlns:xlink="http://www.w3.org/1999/xlink">
<g id="graph0" class="graph" transform="scale(1 1) rotate(0) translate(4 400)">
<polygon fill="white" stroke="transparent" points="-4,4 -4,-400 315.7,-400 315.7,4 -4,4"/>
<!-- pace -->
<g id="node1" class="node">
<title>pace</title>
<polygon fill="none" stroke="black" points="141,-396 87,-396 87,-360 141,-360 141,-396"/>
<text text-anchor="middle" x="114" y="-374.3" font-family="Times,serif" font-size="14.00">pace</text>
</g>
<!-- fv3core -->
<g id="node2" class="node">
<title>fv3core</title>
<ellipse fill="none" stroke="black" cx="142" cy="-162" rx="38.19" ry="18"/>
<text text-anchor="middle" x="142" y="-158.3" font-family="Times,serif" font-size="14.00">fv3core</text>
</g>
<!-- pace&#45;&gt;fv3core -->
<g id="edge1" class="edge">
<title>pace&#45;&gt;fv3core</title>
<path fill="none" stroke="black" d="M95.83,-359.68C87.12,-350.1 77.59,-337.43 73,-324 67.83,-308.86 69.01,-303.49 73,-288 82.75,-250.16 106.66,-211.52 123.59,-187.42"/>
<polygon fill="black" stroke="black" points="126.48,-189.39 129.47,-179.23 120.8,-185.31 126.48,-189.39"/>
</g>
<!-- driver -->
<g id="node3" class="node">
<title>driver</title>
<ellipse fill="none" stroke="black" cx="114" cy="-306" rx="32.49" ry="18"/>
<text text-anchor="middle" x="114" y="-302.3" font-family="Times,serif" font-size="14.00">driver</text>
</g>
<!-- pace&#45;&gt;driver -->
<g id="edge4" class="edge">
<title>pace&#45;&gt;driver</title>
<path fill="none" stroke="black" d="M114,-359.7C114,-351.98 114,-342.71 114,-334.11"/>
<polygon fill="black" stroke="black" points="117.5,-334.1 114,-324.1 110.5,-334.1 117.5,-334.1"/>
</g>
<!-- physics -->
<g id="node4" class="node">
<title>physics</title>
<ellipse fill="none" stroke="black" cx="206" cy="-234" rx="64.19" ry="18"/>
<text text-anchor="middle" x="206" y="-230.3" font-family="Times,serif" font-size="14.00">fv3gfs&#45;physics</text>
</g>
<!-- pace&#45;&gt;physics -->
<g id="edge2" class="edge">
<title>pace&#45;&gt;physics</title>
<path fill="none" stroke="black" d="M128.29,-359.78C136.47,-349.63 146.72,-336.38 155,-324 168.61,-303.64 182.32,-279.47 192.09,-261.46"/>
<polygon fill="black" stroke="black" points="195.44,-262.62 197.09,-252.15 189.27,-259.3 195.44,-262.62"/>
</g>
<!-- stencils -->
<g id="node5" class="node">
<title>stencils</title>
<ellipse fill="none" stroke="black" cx="274" cy="-90" rx="37.89" ry="18"/>
<text text-anchor="middle" x="274" y="-86.3" font-family="Times,serif" font-size="14.00">stencils</text>
</g>
<!-- pace&#45;&gt;stencils -->
<g id="edge5" class="edge">
<title>pace&#45;&gt;stencils</title>
<path fill="none" stroke="black" d="M141.06,-365.95C179.94,-348.41 250.13,-310.09 279,-252 300.34,-209.07 290.85,-151.43 282.26,-118.04"/>
<polygon fill="black" stroke="black" points="285.56,-116.82 279.54,-108.1 278.8,-118.67 285.56,-116.82"/>
</g>
<!-- util -->
<g id="node6" class="node">
<title>util</title>
<ellipse fill="none" stroke="black" cx="142" cy="-18" rx="42.49" ry="18"/>
<text text-anchor="middle" x="142" y="-14.3" font-family="Times,serif" font-size="14.00">pace&#45;util</text>
</g>
<!-- pace&#45;&gt;util -->
<g id="edge3" class="edge">
<title>pace&#45;&gt;util</title>
<path fill="none" stroke="black" d="M86.98,-359.96C53.27,-336.37 0,-290.33 0,-235 0,-235 0,-235 0,-161 0,-101.68 62.72,-58.49 104.79,-36.19"/>
<polygon fill="black" stroke="black" points="106.65,-39.17 113.95,-31.49 103.45,-32.94 106.65,-39.17"/>
</g>
<!-- fv3core&#45;&gt;stencils -->
<g id="edge10" class="edge">
<title>fv3core&#45;&gt;stencils</title>
<path fill="none" stroke="black" d="M166.52,-148C187.36,-136.95 217.47,-120.98 240.53,-108.75"/>
<polygon fill="black" stroke="black" points="242.42,-111.71 249.61,-103.93 239.14,-105.53 242.42,-111.71"/>
</g>
<!-- fv3core&#45;&gt;util -->
<g id="edge9" class="edge">
<title>fv3core&#45;&gt;util</title>
<path fill="none" stroke="black" d="M142,-143.87C142,-119.67 142,-75.21 142,-46.39"/>
<polygon fill="black" stroke="black" points="145.5,-46.19 142,-36.19 138.5,-46.19 145.5,-46.19"/>
</g>
<!-- driver&#45;&gt;fv3core -->
<g id="edge6" class="edge">
<title>driver&#45;&gt;fv3core</title>
<path fill="none" stroke="black" d="M117.38,-287.87C122.17,-263.56 130.99,-218.82 136.67,-190.01"/>
<polygon fill="black" stroke="black" points="140.11,-190.68 138.61,-180.19 133.24,-189.32 140.11,-190.68"/>
</g>
<!-- driver&#45;&gt;physics -->
<g id="edge7" class="edge">
<title>driver&#45;&gt;physics</title>
<path fill="none" stroke="black" d="M132.62,-290.83C145.26,-281.22 162.24,-268.3 176.68,-257.31"/>
<polygon fill="black" stroke="black" points="179,-259.94 184.84,-251.1 174.76,-254.37 179,-259.94"/>
</g>
<!-- driver&#45;&gt;util -->
<g id="edge8" class="edge">
<title>driver&#45;&gt;util</title>
<path fill="none" stroke="black" d="M108.69,-287.98C100.22,-258.49 85.54,-196.06 95,-144 101.48,-108.36 117.56,-69.65 129.11,-44.91"/>
<polygon fill="black" stroke="black" points="132.29,-46.36 133.43,-35.83 125.97,-43.35 132.29,-46.36"/>
</g>
<!-- physics&#45;&gt;fv3core -->
<g id="edge12" class="edge">
<title>physics&#45;&gt;fv3core</title>
<path fill="none" stroke="black" d="M190.83,-216.41C182.67,-207.48 172.45,-196.31 163.48,-186.5"/>
<polygon fill="black" stroke="black" points="165.95,-184.01 156.62,-178.99 160.78,-188.73 165.95,-184.01"/>
</g>
<!-- physics&#45;&gt;stencils -->
<g id="edge13" class="edge">
<title>physics&#45;&gt;stencils</title>
<path fill="none" stroke="black" d="M214.2,-215.87C226.01,-191.22 247.88,-145.54 261.65,-116.79"/>
<polygon fill="black" stroke="black" points="264.82,-118.28 265.98,-107.75 258.5,-115.26 264.82,-118.28"/>
</g>
<!-- physics&#45;&gt;util -->
<g id="edge11" class="edge">
<title>physics&#45;&gt;util</title>
<path fill="none" stroke="black" d="M203.6,-215.74C200.88,-197.66 195.9,-168.53 189,-144 179.23,-109.28 163.98,-70.6 153.52,-45.59"/>
<polygon fill="black" stroke="black" points="156.61,-43.92 149.49,-36.08 150.17,-46.65 156.61,-43.92"/>
</g>
<!-- stencils&#45;&gt;util -->
<g id="edge14" class="edge">
<title>stencils&#45;&gt;util</title>
<path fill="none" stroke="black" d="M249.79,-76.16C229.25,-65.27 199.53,-49.51 176.5,-37.3"/>
<polygon fill="black" stroke="black" points="177.88,-34.07 167.41,-32.47 174.6,-40.25 177.88,-34.07"/>
</g>
</g>
</svg>
