<?xml version="1.0" encoding="UTF-8" standalone="no"?>
<!DOCTYPE svg PUBLIC "-//W3C//DTD SVG 1.1//EN"
 "http://www.w3.org/Graphics/SVG/1.1/DTD/svg11.dtd">
<!-- Generated by graphviz version 2.49.3 (20211023.0002)
 -->
<!-- Pages: 1 -->
<svg width="247pt" height="332pt"
 viewBox="0.00 0.00 246.99 332.00" xmlns="http://www.w3.org/2000/svg" xmlns:xlink="http://www.w3.org/1999/xlink">
<g id="graph0" class="graph" transform="scale(1 1) rotate(0) translate(4 328)">
<polygon fill="white" stroke="transparent" points="-4,4 -4,-328 242.99,-328 242.99,4 -4,4"/>
<!-- pace -->
<g id="node1" class="node">
<title>pace</title>
<polygon fill="none" stroke="black" points="141.4,-324 87.4,-324 87.4,-288 141.4,-288 141.4,-324"/>
<text text-anchor="middle" x="114.4" y="-302.3" font-family="Times,serif" font-size="14.00">pace</text>
</g>
<!-- fv3core -->
<g id="node2" class="node">
<title>fv3core</title>
<ellipse fill="none" stroke="black" cx="134.4" cy="-90" rx="38.19" ry="18"/>
<text text-anchor="middle" x="134.4" y="-86.3" font-family="Times,serif" font-size="14.00">fv3core</text>
</g>
<!-- pace&#45;&gt;fv3core -->
<g id="edge1" class="edge">
<title>pace&#45;&gt;fv3core</title>
<path fill="none" stroke="black" d="M139.51,-287.98C168.48,-266.67 214.54,-227.16 233.4,-180 239.34,-165.14 241.62,-157.73 233.4,-144 221.2,-123.64 198.22,-110.66 177.47,-102.64"/>
<polygon fill="black" stroke="black" points="178.42,-99.27 167.83,-99.2 176.07,-105.86 178.42,-99.27"/>
</g>
<!-- driver -->
<g id="node3" class="node">
<title>driver</title>
<ellipse fill="none" stroke="black" cx="76.4" cy="-234" rx="32.49" ry="18"/>
<text text-anchor="middle" x="76.4" y="-230.3" font-family="Times,serif" font-size="14.00">driver</text>
</g>
<!-- pace&#45;&gt;driver -->
<g id="edge4" class="edge">
<title>pace&#45;&gt;driver</title>
<path fill="none" stroke="black" d="M105,-287.7C100.57,-279.52 95.18,-269.6 90.28,-260.58"/>
<polygon fill="black" stroke="black" points="93.27,-258.74 85.42,-251.62 87.11,-262.08 93.27,-258.74"/>
</g>
<!-- physics -->
<g id="node4" class="node">
<title>physics</title>
<ellipse fill="none" stroke="black" cx="160.4" cy="-162" rx="64.19" ry="18"/>
<text text-anchor="middle" x="160.4" y="-158.3" font-family="Times,serif" font-size="14.00">fv3gfs&#45;physics</text>
</g>
<!-- pace&#45;&gt;physics -->
<g id="edge2" class="edge">
<title>pace&#45;&gt;physics</title>
<path fill="none" stroke="black" d="M119.94,-287.87C127.82,-263.56 142.31,-218.82 151.64,-190.01"/>
<polygon fill="black" stroke="black" points="155.08,-190.78 154.83,-180.19 148.42,-188.62 155.08,-190.78"/>
</g>
<!-- util -->
<g id="node5" class="node">
<title>util</title>
<ellipse fill="none" stroke="black" cx="49.4" cy="-18" rx="49.29" ry="18"/>
<text text-anchor="middle" x="49.4" y="-14.3" font-family="Times,serif" font-size="14.00">fv3gfs&#45;util</text>
</g>
<!-- pace&#45;&gt;util -->
<g id="edge3" class="edge">
<title>pace&#45;&gt;util</title>
<path fill="none" stroke="black" d="M87.14,-294.78C68.88,-286.34 46.28,-272.4 35.4,-252 -0.34,-184.99 23.75,-91.23 39.22,-45.79"/>
<polygon fill="black" stroke="black" points="42.62,-46.68 42.65,-36.09 36.02,-44.35 42.62,-46.68"/>
</g>
<!-- fv3core&#45;&gt;util -->
<g id="edge8" class="edge">
<title>fv3core&#45;&gt;util</title>
<path fill="none" stroke="black" d="M115.95,-73.81C104.31,-64.22 89.07,-51.67 76.11,-41"/>
<polygon fill="black" stroke="black" points="78.34,-38.3 68.39,-34.64 73.89,-43.7 78.34,-38.3"/>
</g>
<!-- stencils -->
<g id="node6" class="node">
<title>stencils</title>
<ellipse fill="none" stroke="black" cx="177.4" cy="-18" rx="37.89" ry="18"/>
<text text-anchor="middle" x="177.4" y="-14.3" font-family="Times,serif" font-size="14.00">stencils</text>
</g>
<!-- fv3core&#45;&gt;stencils -->
<g id="edge11" class="edge">
<title>fv3core&#45;&gt;stencils</title>
<path fill="none" stroke="black" d="M144.59,-72.41C149.78,-63.95 156.21,-53.49 161.99,-44.08"/>
<polygon fill="black" stroke="black" points="165.03,-45.82 167.28,-35.47 159.06,-42.16 165.03,-45.82"/>
</g>
<!-- driver&#45;&gt;fv3core -->
<g id="edge5" class="edge">
<title>driver&#45;&gt;fv3core</title>
<path fill="none" stroke="black" d="M75.56,-215.79C75.33,-197.25 76.89,-167.27 87.4,-144 92.49,-132.73 100.83,-122.14 109.08,-113.43"/>
<polygon fill="black" stroke="black" points="111.63,-115.83 116.23,-106.29 106.68,-110.88 111.63,-115.83"/>
</g>
<!-- driver&#45;&gt;physics -->
<g id="edge6" class="edge">
<title>driver&#45;&gt;physics</title>
<path fill="none" stroke="black" d="M93.8,-218.5C105.18,-209.01 120.28,-196.43 133.23,-185.64"/>
<polygon fill="black" stroke="black" points="135.52,-188.29 140.96,-179.2 131.03,-182.91 135.52,-188.29"/>
</g>
<!-- driver&#45;&gt;util -->
<g id="edge7" class="edge">
<title>driver&#45;&gt;util</title>
<path fill="none" stroke="black" d="M74.23,-215.85C69.56,-178.83 58.5,-91.18 52.85,-46.39"/>
<polygon fill="black" stroke="black" points="56.29,-45.72 51.57,-36.23 49.35,-46.59 56.29,-45.72"/>
</g>
<!-- physics&#45;&gt;fv3core -->
<g id="edge10" class="edge">
<title>physics&#45;&gt;fv3core</title>
<path fill="none" stroke="black" d="M154.1,-144.05C151.13,-136.06 147.52,-126.33 144.2,-117.4"/>
<polygon fill="black" stroke="black" points="147.39,-115.94 140.63,-107.79 140.83,-118.38 147.39,-115.94"/>
</g>
<!-- physics&#45;&gt;util -->
<g id="edge9" class="edge">
<title>physics&#45;&gt;util</title>
<path fill="none" stroke="black" d="M132.2,-145.59C117.29,-136.3 99.6,-123.31 87.4,-108 72.72,-89.6 62.73,-64.69 56.69,-45.91"/>
<polygon fill="black" stroke="black" points="59.99,-44.73 53.74,-36.18 53.29,-46.77 59.99,-44.73"/>
</g>
<!-- physics&#45;&gt;stencils -->
<g id="edge12" class="edge">
<title>physics&#45;&gt;stencils</title>
<path fill="none" stroke="black" d="M169.11,-143.83C173.77,-133.69 179.02,-120.44 181.4,-108 185.29,-87.62 184,-64.16 181.9,-46.44"/>
<polygon fill="black" stroke="black" points="185.32,-45.67 180.52,-36.23 178.39,-46.61 185.32,-45.67"/>
</g>
</g>
</svg>
