<?xml version="1.0" encoding="UTF-8" standalone="no"?>
<!DOCTYPE svg PUBLIC "-//W3C//DTD SVG 1.1//EN"
 "http://www.w3.org/Graphics/SVG/1.1/DTD/svg11.dtd">
<!-- Generated by graphviz version 2.49.3 (20211023.0002)
 -->
<!-- Pages: 1 -->
<svg width="262pt" height="332pt"
 viewBox="0.00 0.00 261.59 332.00" xmlns="http://www.w3.org/2000/svg" xmlns:xlink="http://www.w3.org/1999/xlink">
<g id="graph0" class="graph" transform="scale(1 1) rotate(0) translate(4 328)">
<polygon fill="white" stroke="transparent" points="-4,4 -4,-328 257.59,-328 257.59,4 -4,4"/>
<!-- pace -->
<g id="node1" class="node">
<title>pace</title>
<polygon fill="none" stroke="black" points="95.25,-324 41.25,-324 41.25,-288 95.25,-288 95.25,-324"/>
<text text-anchor="middle" x="68.25" y="-302.3" font-family="Times,serif" font-size="14.00">pace</text>
</g>
<!-- driver -->
<g id="node3" class="node">
<title>driver</title>
<ellipse fill="none" stroke="black" cx="68.25" cy="-234" rx="32.49" ry="18"/>
<text text-anchor="middle" x="68.25" y="-230.3" font-family="Times,serif" font-size="14.00">driver</text>
</g>
<!-- pace&#45;&gt;driver -->
<g id="edge1" class="edge">
<title>pace&#45;&gt;driver</title>
<path fill="none" stroke="black" d="M68.25,-287.7C68.25,-279.98 68.25,-270.71 68.25,-262.11"/>
<polygon fill="black" stroke="black" points="71.75,-262.1 68.25,-252.1 64.75,-262.1 71.75,-262.1"/>
</g>
<!-- fv3core -->
<g id="node2" class="node">
<title>fv3core</title>
<ellipse fill="none" stroke="black" cx="68.25" cy="-162" rx="38.19" ry="18"/>
<text text-anchor="middle" x="68.25" y="-158.3" font-family="Times,serif" font-size="14.00">fv3core</text>
</g>
<!-- stencils -->
<g id="node5" class="node">
<title>stencils</title>
<ellipse fill="none" stroke="black" cx="85.25" cy="-90" rx="37.89" ry="18"/>
<text text-anchor="middle" x="85.25" y="-86.3" font-family="Times,serif" font-size="14.00">stencils</text>
</g>
<!-- fv3core&#45;&gt;stencils -->
<g id="edge6" class="edge">
<title>fv3core&#45;&gt;stencils</title>
<path fill="none" stroke="black" d="M72.36,-144.05C74.25,-136.26 76.55,-126.82 78.67,-118.08"/>
<polygon fill="black" stroke="black" points="82.09,-118.82 81.05,-108.28 75.29,-117.17 82.09,-118.82"/>
</g>
<!-- util -->
<g id="node6" class="node">
<title>util</title>
<ellipse fill="none" stroke="black" cx="42.25" cy="-18" rx="42.49" ry="18"/>
<text text-anchor="middle" x="42.25" y="-14.3" font-family="Times,serif" font-size="14.00">pace&#45;util</text>
</g>
<!-- fv3core&#45;&gt;util -->
<g id="edge5" class="edge">
<title>fv3core&#45;&gt;util</title>
<path fill="none" stroke="black" d="M56.14,-144.78C49.43,-134.75 41.75,-121.29 38.25,-108 32.9,-87.72 34.34,-63.94 36.88,-46.07"/>
<polygon fill="black" stroke="black" points="40.36,-46.48 38.5,-36.05 33.45,-45.36 40.36,-46.48"/>
</g>
<!-- dsl -->
<g id="node7" class="node">
<title>dsl</title>
<ellipse fill="none" stroke="black" cx="151.25" cy="-18" rx="27" ry="18"/>
<text text-anchor="middle" x="151.25" y="-14.3" font-family="Times,serif" font-size="14.00">dsl</text>
</g>
<!-- fv3core&#45;&gt;dsl -->
<g id="edge7" class="edge">
<title>fv3core&#45;&gt;dsl</title>
<path fill="none" stroke="black" d="M91.49,-147.42C105.42,-138.07 122.3,-124.41 132.25,-108 143.54,-89.36 148.18,-64.97 150.06,-46.44"/>
<polygon fill="black" stroke="black" points="153.56,-46.54 150.87,-36.29 146.58,-45.98 153.56,-46.54"/>
</g>
<!-- driver&#45;&gt;fv3core -->
<g id="edge2" class="edge">
<title>driver&#45;&gt;fv3core</title>
<path fill="none" stroke="black" d="M68.25,-215.7C68.25,-207.98 68.25,-198.71 68.25,-190.11"/>
<polygon fill="black" stroke="black" points="71.75,-190.1 68.25,-180.1 64.75,-190.1 71.75,-190.1"/>
</g>
<!-- physics -->
<g id="node4" class="node">
<title>physics</title>
<ellipse fill="none" stroke="black" cx="189.25" cy="-162" rx="64.19" ry="18"/>
<text text-anchor="middle" x="189.25" y="-158.3" font-family="Times,serif" font-size="14.00">fv3gfs&#45;physics</text>
</g>
<!-- driver&#45;&gt;physics -->
<g id="edge3" class="edge">
<title>driver&#45;&gt;physics</title>
<path fill="none" stroke="black" d="M89.88,-220.49C107.52,-210.28 132.82,-195.64 153.47,-183.7"/>
<polygon fill="black" stroke="black" points="155.39,-186.63 162.3,-178.59 151.89,-180.57 155.39,-186.63"/>
</g>
<!-- driver&#45;&gt;util -->
<g id="edge4" class="edge">
<title>driver&#45;&gt;util</title>
<path fill="none" stroke="black" d="M50.38,-218.86C39.7,-209.21 27.09,-195.41 21.25,-180 4.19,-135.06 19.18,-78.54 31.09,-45.82"/>
<polygon fill="black" stroke="black" points="34.51,-46.67 34.8,-36.08 27.97,-44.17 34.51,-46.67"/>
</g>
<!-- physics&#45;&gt;stencils -->
<g id="edge9" class="edge">
<title>physics&#45;&gt;stencils</title>
<path fill="none" stroke="black" d="M165.65,-145.12C150.58,-134.97 130.92,-121.74 114.81,-110.9"/>
<polygon fill="black" stroke="black" points="116.53,-107.84 106.28,-105.16 112.62,-113.65 116.53,-107.84"/>
</g>
<!-- physics&#45;&gt;util -->
<g id="edge8" class="edge">
<title>physics&#45;&gt;util</title>
<path fill="none" stroke="black" d="M181.37,-143.92C171.85,-124.66 154.32,-93.26 132.25,-72 117.15,-57.46 97.34,-45.24 80.14,-36.22"/>
<polygon fill="black" stroke="black" points="81.41,-32.94 70.91,-31.54 78.25,-39.18 81.41,-32.94"/>
</g>
<!-- physics&#45;&gt;dsl -->
<g id="edge10" class="edge">
<title>physics&#45;&gt;dsl</title>
<path fill="none" stroke="black" d="M197.13,-143.98C204.48,-125.59 212.95,-95.75 203.25,-72 197.86,-58.82 187.44,-47.14 177.33,-38.13"/>
<polygon fill="black" stroke="black" points="179.31,-35.22 169.4,-31.49 174.82,-40.59 179.31,-35.22"/>
</g>
<!-- stencils&#45;&gt;util -->
<g id="edge11" class="edge">
<title>stencils&#45;&gt;util</title>
<path fill="none" stroke="black" d="M75.06,-72.41C69.94,-64.08 63.62,-53.8 57.9,-44.49"/>
<polygon fill="black" stroke="black" points="60.88,-42.65 52.66,-35.96 54.91,-46.31 60.88,-42.65"/>
</g>
<!-- stencils&#45;&gt;dsl -->
<g id="edge12" class="edge">
<title>stencils&#45;&gt;dsl</title>
<path fill="none" stroke="black" d="M100.22,-73.12C109.07,-63.73 120.42,-51.7 130.16,-41.36"/>
<polygon fill="black" stroke="black" points="132.92,-43.54 137.23,-33.86 127.82,-38.74 132.92,-43.54"/>
</g>
</g>
</svg>
