<?xml version="1.0" encoding="UTF-8" standalone="no"?>
<!DOCTYPE svg PUBLIC "-//W3C//DTD SVG 1.1//EN"
 "http://www.w3.org/Graphics/SVG/1.1/DTD/svg11.dtd">
<!-- Generated by graphviz version 2.49.3 (20211023.0002)
 -->
<!-- Pages: 1 -->
<svg width="360pt" height="404pt"
 viewBox="0.00 0.00 359.87 404.00" xmlns="http://www.w3.org/2000/svg" xmlns:xlink="http://www.w3.org/1999/xlink">
<g id="graph0" class="graph" transform="scale(1 1) rotate(0) translate(4 400)">
<polygon fill="white" stroke="transparent" points="-4,4 -4,-400 355.87,-400 355.87,4 -4,4"/>
<!-- pace -->
<g id="node1" class="node">
<title>pace</title>
<polygon fill="none" stroke="black" points="191.87,-396 137.87,-396 137.87,-360 191.87,-360 191.87,-396"/>
<text text-anchor="middle" x="164.87" y="-374.3" font-family="Times,serif" font-size="14.00">pace</text>
</g>
<!-- fv3core -->
<g id="node2" class="node">
<title>fv3core</title>
<ellipse fill="none" stroke="black" cx="115.87" cy="-162" rx="38.19" ry="18"/>
<text text-anchor="middle" x="115.87" y="-158.3" font-family="Times,serif" font-size="14.00">fv3core</text>
</g>
<!-- pace&#45;&gt;fv3core -->
<g id="edge1" class="edge">
<title>pace&#45;&gt;fv3core</title>
<path fill="none" stroke="black" d="M160.56,-359.64C154.61,-335.53 143.61,-290.52 134.87,-252 130.19,-231.33 125.19,-207.88 121.5,-190.24"/>
<polygon fill="black" stroke="black" points="124.85,-189.17 119.39,-180.09 118,-190.59 124.85,-189.17"/>
</g>
<!-- driver -->
<g id="node3" class="node">
<title>driver</title>
<ellipse fill="none" stroke="black" cx="61.87" cy="-306" rx="32.49" ry="18"/>
<text text-anchor="middle" x="61.87" y="-302.3" font-family="Times,serif" font-size="14.00">driver</text>
</g>
<!-- pace&#45;&gt;driver -->
<g id="edge4" class="edge">
<title>pace&#45;&gt;driver</title>
<path fill="none" stroke="black" d="M139.68,-359.88C124.74,-349.73 105.77,-336.83 90.3,-326.32"/>
<polygon fill="black" stroke="black" points="91.89,-323.17 81.65,-320.44 87.96,-328.96 91.89,-323.17"/>
</g>
<!-- physics -->
<g id="node4" class="node">
<title>physics</title>
<ellipse fill="none" stroke="black" cx="207.87" cy="-234" rx="64.19" ry="18"/>
<text text-anchor="middle" x="207.87" y="-230.3" font-family="Times,serif" font-size="14.00">fv3gfs&#45;physics</text>
</g>
<!-- pace&#45;&gt;physics -->
<g id="edge2" class="edge">
<title>pace&#45;&gt;physics</title>
<path fill="none" stroke="black" d="M170.06,-359.87C177.42,-335.56 190.97,-290.82 199.69,-262.01"/>
<polygon fill="black" stroke="black" points="203.12,-262.77 202.67,-252.19 196.42,-260.75 203.12,-262.77"/>
</g>
<!-- stencils -->
<g id="node5" class="node">
<title>stencils</title>
<ellipse fill="none" stroke="black" cx="247.87" cy="-90" rx="37.89" ry="18"/>
<text text-anchor="middle" x="247.87" y="-86.3" font-family="Times,serif" font-size="14.00">stencils</text>
</g>
<!-- pace&#45;&gt;stencils -->
<g id="edge5" class="edge">
<title>pace&#45;&gt;stencils</title>
<path fill="none" stroke="black" d="M189.37,-359.83C217.63,-338.37 262.54,-298.71 280.87,-252 298.82,-206.27 277.7,-149.22 261.94,-116.77"/>
<polygon fill="black" stroke="black" points="264.91,-114.87 257.27,-107.52 258.66,-118.03 264.91,-114.87"/>
</g>
<!-- util -->
<g id="node6" class="node">
<title>util</title>
<ellipse fill="none" stroke="black" cx="105.87" cy="-18" rx="42.49" ry="18"/>
<text text-anchor="middle" x="105.87" y="-14.3" font-family="Times,serif" font-size="14.00">pace&#45;util</text>
</g>
<!-- pace&#45;&gt;util -->
<g id="edge3" class="edge">
<title>pace&#45;&gt;util</title>
<path fill="none" stroke="black" d="M137.66,-374.74C104.94,-370.5 50.71,-358.42 20.87,-324 -5.62,-293.44 1.87,-275.45 1.87,-235 1.87,-235 1.87,-235 1.87,-161 1.87,-109.95 46.17,-65.05 76.94,-40.02"/>
<polygon fill="black" stroke="black" points="79.15,-42.74 84.83,-33.79 74.81,-37.24 79.15,-42.74"/>
</g>
<!-- dsl -->
<g id="node7" class="node">
<title>dsl</title>
<ellipse fill="none" stroke="black" cx="280.87" cy="-18" rx="27" ry="18"/>
<text text-anchor="middle" x="280.87" y="-14.3" font-family="Times,serif" font-size="14.00">dsl</text>
</g>
<!-- pace&#45;&gt;dsl -->
<g id="edge6" class="edge">
<title>pace&#45;&gt;dsl</title>
<path fill="none" stroke="black" d="M192.06,-370.08C243.93,-355.06 351.87,-314.29 351.87,-235 351.87,-235 351.87,-235 351.87,-161 351.87,-114.99 321.68,-68.6 300.68,-41.9"/>
<polygon fill="black" stroke="black" points="303.24,-39.51 294.23,-33.94 297.81,-43.91 303.24,-39.51"/>
</g>
<!-- fv3core&#45;&gt;stencils -->
<g id="edge11" class="edge">
<title>fv3core&#45;&gt;stencils</title>
<path fill="none" stroke="black" d="M140.39,-148C161.23,-136.95 191.35,-120.98 214.4,-108.75"/>
<polygon fill="black" stroke="black" points="216.29,-111.71 223.49,-103.93 213.01,-105.53 216.29,-111.71"/>
</g>
<!-- fv3core&#45;&gt;util -->
<g id="edge10" class="edge">
<title>fv3core&#45;&gt;util</title>
<path fill="none" stroke="black" d="M114.67,-143.87C112.96,-119.67 109.83,-75.21 107.8,-46.39"/>
<polygon fill="black" stroke="black" points="111.28,-45.92 107.08,-36.19 104.3,-46.41 111.28,-45.92"/>
</g>
<!-- fv3core&#45;&gt;dsl -->
<g id="edge12" class="edge">
<title>fv3core&#45;&gt;dsl</title>
<path fill="none" stroke="black" d="M129.34,-144.85C145.34,-126.17 173.34,-95.03 200.87,-72 216.9,-58.59 236.41,-45.61 252.16,-35.84"/>
<polygon fill="black" stroke="black" points="254.23,-38.68 260.94,-30.49 250.58,-32.71 254.23,-38.68"/>
</g>
<!-- driver&#45;&gt;fv3core -->
<g id="edge7" class="edge">
<title>driver&#45;&gt;fv3core</title>
<path fill="none" stroke="black" d="M68.28,-288.15C77.58,-263.71 94.89,-218.17 105.88,-189.29"/>
<polygon fill="black" stroke="black" points="109.19,-190.42 109.48,-179.82 102.65,-187.93 109.19,-190.42"/>
</g>
<!-- driver&#45;&gt;physics -->
<g id="edge8" class="edge">
<title>driver&#45;&gt;physics</title>
<path fill="none" stroke="black" d="M85.66,-293.6C107.82,-282.97 141.32,-266.91 167.64,-254.29"/>
<polygon fill="black" stroke="black" points="169.48,-257.29 176.98,-249.81 166.45,-250.98 169.48,-257.29"/>
</g>
<!-- driver&#45;&gt;util -->
<g id="edge9" class="edge">
<title>driver&#45;&gt;util</title>
<path fill="none" stroke="black" d="M61.26,-287.94C60.49,-258.39 60.2,-195.88 68.87,-144 74.68,-109.27 87.09,-70.59 95.94,-45.59"/>
<polygon fill="black" stroke="black" points="99.27,-46.67 99.36,-36.08 92.68,-44.3 99.27,-46.67"/>
</g>
<!-- physics&#45;&gt;fv3core -->
<g id="edge14" class="edge">
<title>physics&#45;&gt;fv3core</title>
<path fill="none" stroke="black" d="M186.54,-216.76C173.7,-207 157.23,-194.46 143.42,-183.96"/>
<polygon fill="black" stroke="black" points="145.29,-180.99 135.22,-177.72 141.05,-186.56 145.29,-180.99"/>
</g>
<!-- physics&#45;&gt;stencils -->
<g id="edge15" class="edge">
<title>physics&#45;&gt;stencils</title>
<path fill="none" stroke="black" d="M212.7,-215.87C219.55,-191.56 232.15,-146.82 240.26,-118.01"/>
<polygon fill="black" stroke="black" points="243.69,-118.76 243.03,-108.19 236.95,-116.87 243.69,-118.76"/>
</g>
<!-- physics&#45;&gt;util -->
<g id="edge13" class="edge">
<title>physics&#45;&gt;util</title>
<path fill="none" stroke="black" d="M199.7,-215.85C181.9,-178.5 139.54,-89.63 118.37,-45.21"/>
<polygon fill="black" stroke="black" points="121.41,-43.46 113.95,-35.94 115.09,-46.47 121.41,-43.46"/>
</g>
<!-- physics&#45;&gt;dsl -->
<g id="edge16" class="edge">
<title>physics&#45;&gt;dsl</title>
<path fill="none" stroke="black" d="M224.69,-216.25C245.86,-193.87 281.1,-151.9 294.87,-108 301.36,-87.32 296.72,-62.95 291.1,-44.94"/>
<polygon fill="black" stroke="black" points="294.39,-43.74 287.85,-35.41 287.77,-46 294.39,-43.74"/>
</g>
<!-- stencils&#45;&gt;util -->
<g id="edge17" class="edge">
<title>stencils&#45;&gt;util</title>
<path fill="none" stroke="black" d="M222.49,-76.49C199.99,-65.4 166.91,-49.09 141.72,-36.67"/>
<polygon fill="black" stroke="black" points="143,-33.4 132.49,-32.12 139.91,-39.68 143,-33.4"/>
</g>
<!-- stencils&#45;&gt;dsl -->
<g id="edge18" class="edge">
<title>stencils&#45;&gt;dsl</title>
<path fill="none" stroke="black" d="M255.86,-72.05C259.77,-63.77 264.55,-53.62 268.89,-44.42"/>
<polygon fill="black" stroke="black" points="272.09,-45.84 273.19,-35.31 265.76,-42.86 272.09,-45.84"/>
</g>
</g>
</svg>
