<?xml version="1.0" encoding="UTF-8" standalone="no"?>
<!DOCTYPE svg PUBLIC "-//W3C//DTD SVG 1.1//EN"
 "http://www.w3.org/Graphics/SVG/1.1/DTD/svg11.dtd">
<!-- Generated by graphviz version 2.49.2 (20211016.1639)
 -->
<!-- Pages: 1 -->
<svg width="230pt" height="260pt"
 viewBox="0.00 0.00 230.24 260.00" xmlns="http://www.w3.org/2000/svg" xmlns:xlink="http://www.w3.org/1999/xlink">
<g id="graph0" class="graph" transform="scale(1 1) rotate(0) translate(4 256)">
<polygon fill="white" stroke="transparent" points="-4,4 -4,-256 226.24,-256 226.24,4 -4,4"/>
<!-- Pace -->
<g id="node1" class="node">
<title>Pace</title>
<polygon fill="none" stroke="black" points="165.35,-252 111.35,-252 111.35,-216 165.35,-216 165.35,-252"/>
<text text-anchor="middle" x="138.35" y="-230.3" font-family="Times,serif" font-size="14.00">Pace</text>
</g>
<!-- fv3core -->
<g id="node2" class="node">
<title>fv3core</title>
<ellipse fill="none" stroke="black" cx="38.35" cy="-90" rx="38.19" ry="18"/>
<text text-anchor="middle" x="38.35" y="-86.3" font-family="Times,serif" font-size="14.00">fv3core</text>
</g>
<!-- Pace&#45;&gt;fv3core -->
<g id="edge1" class="edge">
<title>Pace&#45;&gt;fv3core</title>
<path fill="none" stroke="black" d="M111.21,-219.51C95.42,-210.37 76.32,-196.89 64.35,-180 51.37,-161.69 44.81,-136.93 41.54,-118.17"/>
<polygon fill="black" stroke="black" points="44.98,-117.53 40,-108.18 38.06,-118.6 44.98,-117.53"/>
</g>
<!-- driver -->
<g id="node3" class="node">
<title>driver</title>
<ellipse fill="none" stroke="black" cx="105.35" cy="-162" rx="32.49" ry="18"/>
<text text-anchor="middle" x="105.35" y="-158.3" font-family="Times,serif" font-size="14.00">driver</text>
</g>
<!-- Pace&#45;&gt;driver -->
<g id="edge4" class="edge">
<title>Pace&#45;&gt;driver</title>
<path fill="none" stroke="black" d="M130.19,-215.7C126.38,-207.61 121.76,-197.81 117.54,-188.87"/>
<polygon fill="black" stroke="black" points="120.61,-187.18 113.18,-179.62 114.28,-190.16 120.61,-187.18"/>
</g>
<!-- physics -->
<g id="node4" class="node">
<title>physics</title>
<ellipse fill="none" stroke="black" cx="170.35" cy="-90" rx="37.89" ry="18"/>
<text text-anchor="middle" x="170.35" y="-86.3" font-family="Times,serif" font-size="14.00">physics</text>
</g>
<!-- Pace&#45;&gt;physics -->
<g id="edge2" class="edge">
<title>Pace&#45;&gt;physics</title>
<path fill="none" stroke="black" d="M142.21,-215.87C147.68,-191.56 157.77,-146.82 164.26,-118.01"/>
<polygon fill="black" stroke="black" points="167.69,-118.71 166.47,-108.19 160.86,-117.18 167.69,-118.71"/>
</g>
<!-- util -->
<g id="node5" class="node">
<title>util</title>
<ellipse fill="none" stroke="black" cx="137.35" cy="-18" rx="27" ry="18"/>
<text text-anchor="middle" x="137.35" y="-14.3" font-family="Times,serif" font-size="14.00">util</text>
</g>
<!-- Pace&#45;&gt;util -->
<g id="edge3" class="edge">
<title>Pace&#45;&gt;util</title>
<path fill="none" stroke="black" d="M153.65,-215.95C172.89,-193.23 204.92,-150.91 217.35,-108 221.8,-92.63 224.92,-86.1 217.35,-72 207.3,-53.3 187.44,-40.09 170.02,-31.53"/>
<polygon fill="black" stroke="black" points="171.22,-28.23 160.67,-27.25 168.31,-34.59 171.22,-28.23"/>
</g>
<!-- fv3core&#45;&gt;util -->
<g id="edge8" class="edge">
<title>fv3core&#45;&gt;util</title>
<path fill="none" stroke="black" d="M58.86,-74.5C73.96,-63.82 94.62,-49.21 110.95,-37.66"/>
<polygon fill="black" stroke="black" points="113.37,-40.24 119.52,-31.61 109.33,-34.52 113.37,-40.24"/>
</g>
<!-- driver&#45;&gt;fv3core -->
<g id="edge5" class="edge">
<title>driver&#45;&gt;fv3core</title>
<path fill="none" stroke="black" d="M90.81,-145.81C81.89,-136.49 70.3,-124.38 60.28,-113.91"/>
<polygon fill="black" stroke="black" points="62.76,-111.45 53.32,-106.64 57.71,-116.29 62.76,-111.45"/>
</g>
<!-- driver&#45;&gt;physics -->
<g id="edge6" class="edge">
<title>driver&#45;&gt;physics</title>
<path fill="none" stroke="black" d="M119.77,-145.46C128.24,-136.35 139.1,-124.65 148.59,-114.43"/>
<polygon fill="black" stroke="black" points="151.27,-116.69 155.51,-106.98 146.14,-111.92 151.27,-116.69"/>
</g>
<!-- driver&#45;&gt;util -->
<g id="edge7" class="edge">
<title>driver&#45;&gt;util</title>
<path fill="none" stroke="black" d="M108.5,-143.87C111.88,-125.91 117.55,-96.87 123.35,-72 125.32,-63.53 127.67,-54.35 129.87,-46.05"/>
<polygon fill="black" stroke="black" points="133.33,-46.69 132.55,-36.12 126.57,-44.87 133.33,-46.69"/>
</g>
<!-- physics&#45;&gt;util -->
<g id="edge9" class="edge">
<title>physics&#45;&gt;util</title>
<path fill="none" stroke="black" d="M162.36,-72.05C158.45,-63.77 153.67,-53.62 149.33,-44.42"/>
<polygon fill="black" stroke="black" points="152.46,-42.86 145.03,-35.31 146.13,-45.84 152.46,-42.86"/>
</g>
</g>
</svg>
