<?xml version="1.0" encoding="UTF-8" standalone="no"?>
<!DOCTYPE svg PUBLIC "-//W3C//DTD SVG 1.1//EN"
 "http://www.w3.org/Graphics/SVG/1.1/DTD/svg11.dtd">
<!-- Generated by graphviz version 7.0.0 (20221023.0053)
 -->
<!-- Pages: 1 -->
<svg width="206pt" height="332pt"
 viewBox="0.00 0.00 206.05 332.00" xmlns="http://www.w3.org/2000/svg" xmlns:xlink="http://www.w3.org/1999/xlink">
<g id="graph0" class="graph" transform="scale(1 1) rotate(0) translate(4 328)">
<polygon fill="white" stroke="none" points="-4,4 -4,-328 202.05,-328 202.05,4 -4,4"/>
<!-- pace -->
<g id="node1" class="node">
<title>pace</title>
<polygon fill="none" stroke="black" points="90,-324 36,-324 36,-288 90,-288 90,-324"/>
<text text-anchor="middle" x="63" y="-302.3" font-family="Times,serif" font-size="14.00">pace</text>
</g>
<!-- driver -->
<g id="node3" class="node">
<title>driver</title>
<ellipse fill="none" stroke="black" cx="63" cy="-234" rx="31.7" ry="18"/>
<text text-anchor="middle" x="63" y="-230.3" font-family="Times,serif" font-size="14.00">driver</text>
</g>
<!-- pace&#45;&gt;driver -->
<g id="edge1" class="edge">
<title>pace&#45;&gt;driver</title>
<path fill="none" stroke="black" d="M63,-287.7C63,-280.41 63,-271.73 63,-263.54"/>
<polygon fill="black" stroke="black" points="66.5,-263.62 63,-253.62 59.5,-263.62 66.5,-263.62"/>
</g>
<!-- fv3core -->
<g id="node2" class="node">
<title>fv3core</title>
<ellipse fill="none" stroke="black" cx="63" cy="-162" rx="37.89" ry="18"/>
<text text-anchor="middle" x="63" y="-158.3" font-family="Times,serif" font-size="14.00">fv3core</text>
</g>
<!-- stencils -->
<g id="node5" class="node">
<title>stencils</title>
<ellipse fill="none" stroke="black" cx="63" cy="-90" rx="37.09" ry="18"/>
<text text-anchor="middle" x="63" y="-86.3" font-family="Times,serif" font-size="14.00">stencils</text>
</g>
<!-- fv3core&#45;&gt;stencils -->
<g id="edge6" class="edge">
<title>fv3core&#45;&gt;stencils</title>
<path fill="none" stroke="black" d="M63,-143.7C63,-136.41 63,-127.73 63,-119.54"/>
<polygon fill="black" stroke="black" points="66.5,-119.62 63,-109.62 59.5,-119.62 66.5,-119.62"/>
</g>
<!-- util -->
<g id="node6" class="node">
<title>util</title>
<ellipse fill="none" stroke="black" cx="27" cy="-18" rx="27" ry="18"/>
<text text-anchor="middle" x="27" y="-14.3" font-family="Times,serif" font-size="14.00">util</text>
</g>
<!-- fv3core&#45;&gt;util -->
<g id="edge5" class="edge">
<title>fv3core&#45;&gt;util</title>
<path fill="none" stroke="black" d="M44.57,-145.9C34.32,-136.27 22.54,-122.84 17,-108 9.68,-88.4 12.82,-64.83 17.44,-46.86"/>
<polygon fill="black" stroke="black" points="20.75,-48 20.18,-37.42 14.03,-46.05 20.75,-48"/>
</g>
<!-- dsl -->
<g id="node7" class="node">
<title>dsl</title>
<ellipse fill="none" stroke="black" cx="128" cy="-18" rx="27" ry="18"/>
<text text-anchor="middle" x="128" y="-14.3" font-family="Times,serif" font-size="14.00">dsl</text>
</g>
<!-- fv3core&#45;&gt;dsl -->
<g id="edge7" class="edge">
<title>fv3core&#45;&gt;dsl</title>
<path fill="none" stroke="black" d="M79.87,-145.87C89.82,-136.03 101.82,-122.39 109,-108 118.44,-89.07 123.2,-65.6 125.6,-47.51"/>
<polygon fill="black" stroke="black" points="129.06,-48.07 126.71,-37.74 122.1,-47.28 129.06,-48.07"/>
</g>
<!-- driver&#45;&gt;fv3core -->
<g id="edge2" class="edge">
<title>driver&#45;&gt;fv3core</title>
<path fill="none" stroke="black" d="M63,-215.7C63,-208.41 63,-199.73 63,-191.54"/>
<polygon fill="black" stroke="black" points="66.5,-191.62 63,-181.62 59.5,-191.62 66.5,-191.62"/>
</g>
<!-- physics -->
<g id="node4" class="node">
<title>physics</title>
<ellipse fill="none" stroke="black" cx="161" cy="-162" rx="37.09" ry="18"/>
<text text-anchor="middle" x="161" y="-158.3" font-family="Times,serif" font-size="14.00">physics</text>
</g>
<!-- driver&#45;&gt;physics -->
<g id="edge3" class="edge">
<title>driver&#45;&gt;physics</title>
<path fill="none" stroke="black" d="M81.9,-219.5C96.03,-209.41 115.62,-195.41 131.77,-183.88"/>
<polygon fill="black" stroke="black" points="133.48,-186.96 139.58,-178.3 129.41,-181.26 133.48,-186.96"/>
</g>
<!-- driver&#45;&gt;util -->
<g id="edge4" class="edge">
<title>driver&#45;&gt;util</title>
<path fill="none" stroke="black" d="M45.64,-218.65C35.16,-208.92 22.59,-195.11 16,-180 -3.23,-135.91 1.16,-119.46 9,-72 10.4,-63.53 12.98,-54.59 15.75,-46.52"/>
<polygon fill="black" stroke="black" points="19,-47.83 19.18,-37.24 12.43,-45.41 19,-47.83"/>
</g>
<!-- physics&#45;&gt;stencils -->
<g id="edge9" class="edge">
<title>physics&#45;&gt;stencils</title>
<path fill="none" stroke="black" d="M140.69,-146.5C126.77,-136.55 108.06,-123.19 92.5,-112.07"/>
<polygon fill="black" stroke="black" points="94.68,-109.33 84.51,-106.37 90.61,-115.03 94.68,-109.33"/>
</g>
<!-- physics&#45;&gt;util -->
<g id="edge8" class="edge">
<title>physics&#45;&gt;util</title>
<path fill="none" stroke="black" d="M154,-144.04C145.49,-124.89 129.65,-93.6 109,-72 94.45,-56.78 74.71,-43.85 58.25,-34.57"/>
<polygon fill="black" stroke="black" points="60.29,-31.7 49.83,-30 56.95,-37.85 60.29,-31.7"/>
</g>
<!-- physics&#45;&gt;dsl -->
<g id="edge10" class="edge">
<title>physics&#45;&gt;dsl</title>
<path fill="none" stroke="black" d="M170.23,-144.41C179.12,-126.13 189.86,-96.13 180,-72 174.81,-59.3 164.95,-48 155.2,-39.13"/>
<polygon fill="black" stroke="black" points="157.46,-36.46 147.57,-32.68 152.94,-41.81 157.46,-36.46"/>
</g>
<!-- stencils&#45;&gt;util -->
<g id="edge11" class="edge">
<title>stencils&#45;&gt;util</title>
<path fill="none" stroke="black" d="M54.29,-72.05C50.16,-64.03 45.13,-54.26 40.52,-45.3"/>
<polygon fill="black" stroke="black" points="43.76,-43.95 36.08,-36.65 37.54,-47.15 43.76,-43.95"/>
</g>
<!-- stencils&#45;&gt;dsl -->
<g id="edge12" class="edge">
<title>stencils&#45;&gt;dsl</title>
<path fill="none" stroke="black" d="M77.75,-73.12C86.21,-64.01 96.98,-52.4 106.38,-42.28"/>
<polygon fill="black" stroke="black" points="108.93,-44.68 113.17,-34.97 103.8,-39.92 108.93,-44.68"/>
</g>
</g>
</svg>
