<?xml version="1.0" encoding="UTF-8" standalone="no"?>
<!DOCTYPE svg PUBLIC "-//W3C//DTD SVG 1.1//EN"
 "http://www.w3.org/Graphics/SVG/1.1/DTD/svg11.dtd">
<!-- Generated by graphviz version 2.49.2 (20211016.1639)
 -->
<!-- Pages: 1 -->
<svg width="287pt" height="260pt"
 viewBox="0.00 0.00 286.65 260.00" xmlns="http://www.w3.org/2000/svg" xmlns:xlink="http://www.w3.org/1999/xlink">
<g id="graph0" class="graph" transform="scale(1 1) rotate(0) translate(4 256)">
<polygon fill="white" stroke="transparent" points="-4,4 -4,-256 282.65,-256 282.65,4 -4,4"/>
<!-- Pace -->
<g id="node1" class="node">
<title>Pace</title>
<polygon fill="none" stroke="black" points="177.35,-252 123.35,-252 123.35,-216 177.35,-216 177.35,-252"/>
<text text-anchor="middle" x="150.35" y="-230.3" font-family="Times,serif" font-size="14.00">Pace</text>
</g>
<!-- fv3core -->
<g id="node2" class="node">
<title>fv3core</title>
<ellipse fill="none" stroke="black" cx="38.35" cy="-90" rx="38.19" ry="18"/>
<text text-anchor="middle" x="38.35" y="-86.3" font-family="Times,serif" font-size="14.00">fv3core</text>
</g>
<!-- Pace&#45;&gt;fv3core -->
<g id="edge1" class="edge">
<title>Pace&#45;&gt;fv3core</title>
<path fill="none" stroke="black" d="M123.33,-220.41C106.36,-211.29 85.15,-197.51 71.35,-180 56.97,-161.76 48.42,-136.64 43.64,-117.73"/>
<polygon fill="black" stroke="black" points="47.04,-116.9 41.36,-107.95 40.23,-118.49 47.04,-116.9"/>
</g>
<!-- driver -->
<g id="node3" class="node">
<title>driver</title>
<ellipse fill="none" stroke="black" cx="112.35" cy="-162" rx="32.49" ry="18"/>
<text text-anchor="middle" x="112.35" y="-158.3" font-family="Times,serif" font-size="14.00">driver</text>
</g>
<!-- Pace&#45;&gt;driver -->
<g id="edge4" class="edge">
<title>Pace&#45;&gt;driver</title>
<path fill="none" stroke="black" d="M140.95,-215.7C136.52,-207.52 131.13,-197.6 126.24,-188.58"/>
<polygon fill="black" stroke="black" points="129.22,-186.74 121.37,-179.62 123.07,-190.08 129.22,-186.74"/>
</g>
<!-- physics -->
<g id="node4" class="node">
<title>physics</title>
<ellipse fill="none" stroke="black" cx="196.35" cy="-90" rx="64.19" ry="18"/>
<text text-anchor="middle" x="196.35" y="-86.3" font-family="Times,serif" font-size="14.00">fv3gfs&#45;physics</text>
</g>
<!-- Pace&#45;&gt;physics -->
<g id="edge2" class="edge">
<title>Pace&#45;&gt;physics</title>
<path fill="none" stroke="black" d="M155.9,-215.87C163.77,-191.56 178.26,-146.82 187.6,-118.01"/>
<polygon fill="black" stroke="black" points="191.03,-118.78 190.78,-108.19 184.37,-116.62 191.03,-118.78"/>
</g>
<!-- util -->
<g id="node5" class="node">
<title>util</title>
<ellipse fill="none" stroke="black" cx="150.35" cy="-18" rx="49.29" ry="18"/>
<text text-anchor="middle" x="150.35" y="-14.3" font-family="Times,serif" font-size="14.00">fv3gfs&#45;util</text>
</g>
<!-- Pace&#45;&gt;util -->
<g id="edge3" class="edge">
<title>Pace&#45;&gt;util</title>
<path fill="none" stroke="black" d="M177.53,-217.24C222.78,-188.92 305.22,-127.24 269.35,-72 254.84,-49.66 228.5,-36.66 204.28,-29.13"/>
<polygon fill="black" stroke="black" points="205,-25.7 194.42,-26.32 203.08,-32.43 205,-25.7"/>
</g>
<!-- fv3core&#45;&gt;util -->
<g id="edge8" class="edge">
<title>fv3core&#45;&gt;util</title>
<path fill="none" stroke="black" d="M60.47,-75.17C76.8,-64.97 99.28,-50.92 117.67,-39.42"/>
<polygon fill="black" stroke="black" points="119.7,-42.28 126.33,-34.01 115.99,-36.34 119.7,-42.28"/>
</g>
<!-- driver&#45;&gt;fv3core -->
<g id="edge5" class="edge">
<title>driver&#45;&gt;fv3core</title>
<path fill="none" stroke="black" d="M96.65,-146.15C86.66,-136.7 73.51,-124.26 62.23,-113.6"/>
<polygon fill="black" stroke="black" points="64.46,-110.88 54.79,-106.55 59.65,-115.97 64.46,-110.88"/>
</g>
<!-- driver&#45;&gt;physics -->
<g id="edge6" class="edge">
<title>driver&#45;&gt;physics</title>
<path fill="none" stroke="black" d="M129.75,-146.5C141.13,-137.01 156.24,-124.43 169.18,-113.64"/>
<polygon fill="black" stroke="black" points="171.47,-116.29 176.91,-107.2 166.99,-110.91 171.47,-116.29"/>
</g>
<!-- driver&#45;&gt;util -->
<g id="edge7" class="edge">
<title>driver&#45;&gt;util</title>
<path fill="none" stroke="black" d="M112.71,-143.9C113.49,-125.71 115.92,-96.27 123.35,-72 126.16,-62.82 130.49,-53.31 134.87,-44.93"/>
<polygon fill="black" stroke="black" points="138.01,-46.47 139.75,-36.02 131.87,-43.11 138.01,-46.47"/>
</g>
<!-- physics&#45;&gt;util -->
<g id="edge9" class="edge">
<title>physics&#45;&gt;util</title>
<path fill="none" stroke="black" d="M185.21,-72.05C179.73,-63.71 173.01,-53.49 166.94,-44.25"/>
<polygon fill="black" stroke="black" points="169.8,-42.22 161.38,-35.79 163.95,-46.07 169.8,-42.22"/>
</g>
</g>
</svg>
