<?xml version="1.0" encoding="UTF-8" standalone="no"?>
<!DOCTYPE svg PUBLIC "-//W3C//DTD SVG 1.1//EN"
 "http://www.w3.org/Graphics/SVG/1.1/DTD/svg11.dtd">
<!-- Generated by graphviz version 2.40.1 (20161225.0304)
 -->
<!-- Title: %3 Pages: 1 -->
<svg width="288pt" height="332pt"
 viewBox="0.00 0.00 288.08 332.00" xmlns="http://www.w3.org/2000/svg" xmlns:xlink="http://www.w3.org/1999/xlink">
<g id="graph0" class="graph" transform="scale(1 1) rotate(0) translate(4 328)">
<title>%3</title>
<polygon fill="#ffffff" stroke="transparent" points="-4,4 -4,-328 284.08,-328 284.08,4 -4,4"/>
<!-- pace -->
<g id="node1" class="node">
<title>pace</title>
<polygon fill="none" stroke="#000000" points="88.7368,-324 34.7368,-324 34.7368,-288 88.7368,-288 88.7368,-324"/>
<text text-anchor="middle" x="61.7368" y="-302.3" font-family="Times,serif" font-size="14.00" fill="#000000">pace</text>
</g>
<!-- driver -->
<g id="node3" class="node">
<title>driver</title>
<ellipse fill="none" stroke="#000000" cx="61.7368" cy="-234" rx="38.9931" ry="18"/>
<text text-anchor="middle" x="61.7368" y="-230.3" font-family="Times,serif" font-size="14.00" fill="#000000">driver</text>
</g>
<!-- pace&#45;&gt;driver -->
<g id="edge1" class="edge">
<title>pace&#45;&gt;driver</title>
<path fill="none" stroke="#000000" d="M61.7368,-287.8314C61.7368,-280.131 61.7368,-270.9743 61.7368,-262.4166"/>
<polygon fill="#000000" stroke="#000000" points="65.2369,-262.4132 61.7368,-252.4133 58.2369,-262.4133 65.2369,-262.4132"/>
</g>
<!-- fv3core -->
<g id="node2" class="node">
<title>fv3core</title>
<ellipse fill="none" stroke="#000000" cx="61.7368" cy="-162" rx="46.2923" ry="18"/>
<text text-anchor="middle" x="61.7368" y="-158.3" font-family="Times,serif" font-size="14.00" fill="#000000">fv3core</text>
</g>
<!-- stencils -->
<g id="node5" class="node">
<title>stencils</title>
<ellipse fill="none" stroke="#000000" cx="89.7368" cy="-90" rx="46.5926" ry="18"/>
<text text-anchor="middle" x="89.7368" y="-86.3" font-family="Times,serif" font-size="14.00" fill="#000000">stencils</text>
</g>
<!-- fv3core&#45;&gt;stencils -->
<g id="edge6" class="edge">
<title>fv3core&#45;&gt;stencils</title>
<path fill="none" stroke="#000000" d="M68.6582,-144.2022C71.8217,-136.0675 75.6396,-126.2501 79.152,-117.2181"/>
<polygon fill="#000000" stroke="#000000" points="82.4356,-118.4312 82.7981,-107.8425 75.9115,-115.894 82.4356,-118.4312"/>
</g>
<!-- util -->
<g id="node6" class="node">
<title>util</title>
<ellipse fill="none" stroke="#000000" cx="52.7368" cy="-18" rx="27" ry="18"/>
<text text-anchor="middle" x="52.7368" y="-14.3" font-family="Times,serif" font-size="14.00" fill="#000000">util</text>
</g>
<!-- fv3core&#45;&gt;util -->
<g id="edge5" class="edge">
<title>fv3core&#45;&gt;util</title>
<path fill="none" stroke="#000000" d="M49.8474,-144.368C43.7213,-134.2107 36.8891,-120.9273 33.7368,-108 28.5896,-86.8914 34.2801,-62.7989 40.7425,-44.8563"/>
<polygon fill="#000000" stroke="#000000" points="44.0865,-45.9143 44.454,-35.3258 37.5637,-43.374 44.0865,-45.9143"/>
</g>
<!-- dsl -->
<g id="node7" class="node">
<title>dsl</title>
<ellipse fill="none" stroke="#000000" cx="164.7368" cy="-18" rx="27" ry="18"/>
<text text-anchor="middle" x="164.7368" y="-14.3" font-family="Times,serif" font-size="14.00" fill="#000000">dsl</text>
</g>
<!-- fv3core&#45;&gt;dsl -->
<g id="edge7" class="edge">
<title>fv3core&#45;&gt;dsl</title>
<path fill="none" stroke="#000000" d="M93.87,-148.9094C111.8094,-139.9785 133.0396,-126.4106 145.7368,-108 158.2245,-89.8933 162.7747,-65.2179 164.3138,-46.2835"/>
<polygon fill="#000000" stroke="#000000" points="167.8158,-46.3485 164.9,-36.1629 160.8275,-45.9437 167.8158,-46.3485"/>
</g>
<!-- driver&#45;&gt;fv3core -->
<g id="edge2" class="edge">
<title>driver&#45;&gt;fv3core</title>
<path fill="none" stroke="#000000" d="M61.7368,-215.8314C61.7368,-208.131 61.7368,-198.9743 61.7368,-190.4166"/>
<polygon fill="#000000" stroke="#000000" points="65.2369,-190.4132 61.7368,-180.4133 58.2369,-190.4133 65.2369,-190.4132"/>
</g>
<!-- physics -->
<g id="node4" class="node">
<title>physics</title>
<ellipse fill="none" stroke="#000000" cx="202.7368" cy="-162" rx="77.1866" ry="18"/>
<text text-anchor="middle" x="202.7368" y="-158.3" font-family="Times,serif" font-size="14.00" fill="#000000">fv3gfs&#45;physics</text>
</g>
<!-- driver&#45;&gt;physics -->
<g id="edge3" class="edge">
<title>driver&#45;&gt;physics</title>
<path fill="none" stroke="#000000" d="M87.9274,-220.6261C108.5276,-210.1068 137.6161,-195.2531 161.3584,-183.1294"/>
<polygon fill="#000000" stroke="#000000" points="163.1841,-186.1271 170.4984,-178.4622 160.0006,-179.8929 163.1841,-186.1271"/>
</g>
<!-- driver&#45;&gt;util -->
<g id="edge4" class="edge">
<title>driver&#45;&gt;util</title>
<path fill="none" stroke="#000000" d="M39.4904,-219.0689C27.3294,-209.5052 13.4159,-195.9178 6.7368,-180 -12.9094,-133.1785 15.2714,-75.327 35.4288,-42.96"/>
<polygon fill="#000000" stroke="#000000" points="38.3817,-44.839 40.8551,-34.5369 32.4971,-41.0481 38.3817,-44.839"/>
</g>
<!-- physics&#45;&gt;stencils -->
<g id="edge9" class="edge">
<title>physics&#45;&gt;stencils</title>
<path fill="none" stroke="#000000" d="M175.9574,-144.937C159.9512,-134.7384 139.4962,-121.7051 122.5269,-110.8928"/>
<polygon fill="#000000" stroke="#000000" points="124.3272,-107.8898 114.0129,-105.4679 120.5656,-113.7933 124.3272,-107.8898"/>
</g>
<!-- physics&#45;&gt;util -->
<g id="edge8" class="edge">
<title>physics&#45;&gt;util</title>
<path fill="none" stroke="#000000" d="M194.5859,-143.9892C185.0494,-124.4308 167.7269,-93.1593 145.7368,-72 128.1279,-55.0563 104.2145,-41.3227 85.0463,-31.9458"/>
<polygon fill="#000000" stroke="#000000" points="86.3273,-28.68 75.7906,-27.5717 83.3364,-35.0089 86.3273,-28.68"/>
</g>
<!-- physics&#45;&gt;dsl -->
<g id="edge10" class="edge">
<title>physics&#45;&gt;dsl</title>
<path fill="none" stroke="#000000" d="M211.0229,-143.7715C218.2654,-125.1214 226.2572,-95.6117 216.7368,-72 211.4371,-58.8561 201.2378,-47.1238 191.2658,-37.9803"/>
<polygon fill="#000000" stroke="#000000" points="193.2781,-35.0945 183.4151,-31.2249 188.7123,-40.4005 193.2781,-35.0945"/>
</g>
<!-- stencils&#45;&gt;util -->
<g id="edge11" class="edge">
<title>stencils&#45;&gt;util</title>
<path fill="none" stroke="#000000" d="M80.5908,-72.2022C76.2252,-63.7071 70.9165,-53.3767 66.1094,-44.0223"/>
<polygon fill="#000000" stroke="#000000" points="69.2067,-42.3918 61.5229,-35.0972 62.9806,-45.5913 69.2067,-42.3918"/>
</g>
<!-- stencils&#45;&gt;dsl -->
<g id="edge12" class="edge">
<title>stencils&#45;&gt;dsl</title>
<path fill="none" stroke="#000000" d="M107.5108,-72.937C117.7878,-63.071 130.8281,-50.5524 141.8641,-39.9578"/>
<polygon fill="#000000" stroke="#000000" points="144.3356,-42.437 149.1256,-32.9868 139.4878,-37.3873 144.3356,-42.437"/>
</g>
</g>
</svg>
